<svg width="40px" height="40px" viewBox="0 0 40 40">
<path fill="#EEEEEE" d="M40,36c0,2.209-1.791,4-4,4H4c-2.209,0-4-1.791-4-4V4c0-2.209,1.791-4,4-4h32c2.209,0,4,1.791,4,4V36z"/>
<g>
	<path fill="#28669F" d="M9.603,13.349v-3.218h2.399V7.293l3.618-3.313v6.151h3.409v3.218h-3.409v8.95
		c0,1.435,0.079,2.32,0.238,2.657c0.158,0.336,0.555,0.504,1.19,0.504c0.673,0,1.333-0.127,1.98-0.381v3.294
		c-0.927,0.33-1.854,0.495-2.78,0.495c-1.104,0-2-0.245-2.685-0.733c-0.686-0.488-1.117-1.101-1.295-1.837s-0.267-2.006-0.267-3.809
		v-9.141H9.603z"/>
	<path fill="#28669F" d="M19.467,36.486v-3.275c0.609,0.076,1.193,0.114,1.752,0.114c0.952,0,1.666-0.146,2.143-0.438
		c0.476-0.292,0.793-0.717,0.952-1.276c0.158-0.559,0.238-2.292,0.238-5.199V13.349h-2.895v-3.218h6.513v15.691
		c0,3.161-0.102,5.364-0.305,6.608s-0.806,2.263-1.809,3.056s-2.488,1.19-4.456,1.19C20.851,36.677,20.14,36.613,19.467,36.486z
		 M24.038,3.866c0-0.597,0.216-1.107,0.647-1.533s0.946-0.638,1.542-0.638c0.609,0,1.126,0.209,1.552,0.628
		c0.425,0.419,0.638,0.933,0.638,1.542s-0.216,1.127-0.647,1.552s-0.946,0.638-1.542,0.638c-0.622,0-1.143-0.219-1.562-0.657
		C24.247,4.961,24.038,4.45,24.038,3.866z"/>
</g>
</svg>
