<svg version="1.1" width="40px" height="40px" viewBox="0 0 40 40" style="enable-background:new 0 0 40 40;" xml:space="preserve">
<style type="text/css">
	.st0{fill:#A6CE39;}
	.st1{fill:#FFFFFF;}
</style>
<path class="st0" d="M39.2,20c0,10.6-8.6,19.2-19.2,19.2S0.8,30.6,0.8,20S9.4,0.8,20,0.8S39.2,9.4,39.2,20z"/>
<g>
	<path class="st1" d="M13.7,28.8h-2.3V12.6h2.3v7.3V28.8z"/>
	<path class="st1" d="M17.1,12.6h6.3c6,0,8.6,4.3,8.6,8.1c0,4.1-3.2,8.1-8.5,8.1h-6.3C17.1,28.8,17.1,12.6,17.1,12.6z M19.4,26.7
		h3.7c5.2,0,6.5-4,6.5-6c0-3.2-2.1-6-6.6-6h-3.6L19.4,26.7L19.4,26.7z"/>
	<path class="st1" d="M14.1,9.3c0,0.8-0.7,1.5-1.5,1.5c-0.8,0-1.5-0.7-1.5-1.5c0-0.8,0.7-1.5,1.5-1.5C13.4,7.8,14.1,8.5,14.1,9.3z"
		/>
</g>
</svg>
